<?xml version="1.0" encoding="UTF-8"?>
<svg width="23px" height="30px" viewBox="0 0 23 30" version="1.1" xmlns="http://www.w3.org/2000/svg" xmlns:xlink="http://www.w3.org/1999/xlink">
    <!-- Generator: Sketch 52.6 (67491) - http://www.bohemiancoding.com/sketch -->
    <title>icn_html</title>
    <desc>Created with Sketch.</desc>
    <g id="Home" stroke="none" stroke-width="1" fill="none" fill-rule="evenodd">
        <g id="Home/Active/Desktop/Portrait" transform="translate(-263.000000, -209.000000)" fill-rule="nonzero">
            <g id="Middle-Area" transform="translate(238.000000, 76.000000)">
                <g id="Webpage" transform="translate(1.000000, 132.000000)">
                    <g id="icn_html" transform="translate(24.000000, 1.000000)">
                        <g id="expanded">
                            <g id="Group">
                                <path d="M16,6.0000267 L16,1.0000267 L1,1.0000267 L1,29.0000267 L22,29.0000267 L22,7.0000267 L17,7.0000267 C16.4477539,7.0000267 16,6.5522728 16,6.0000267 Z M8.7568359,14.894558 L5.7861328,16.0742455 L5.7861328,16.0918236 L8.7568359,17.2617455 L8.7568359,18.5674096 L4.2197265,16.5605737 L4.2197265,15.5967065 L8.7568359,13.588894 L8.7568359,14.894558 Z M10.9960938,19.0449486 L9.7001953,19.0449486 L12.0048828,11.9140892 L13.3007812,11.9140892 L10.9960938,19.0449486 Z M18.7822266,16.5605736 L14.2451172,18.5674095 L14.2451172,17.2617454 L17.2158203,16.0918235 L17.2158203,16.0742454 L14.2451172,14.8945579 L14.2451172,13.5888938 L18.7822266,15.5967063 L18.7822266,16.5605736 Z" id="Shape" fill="#FFFFFF"></path>
                                <path d="M22.9874878,5.9372826 C22.97229,5.6993676 22.8827515,5.4685326 22.7070923,5.2928734 L17.7070923,0.2928734 C17.5158081,0.1015892 17.2600098,-3.43e-05 16.9997559,-3.43e-05 C16.9997559,-3.43e-05 16.9995728,2.67e-05 16.9994507,2.67e-05 L0.5,2.67e-05 C0.2236328,2.67e-05 0,0.2236595 0,0.5000267 L0,29.5000267 C0,29.7763939 0.2236328,30.0000267 0.5,30.0000267 L22.5,30.0000267 C22.7763672,30.0000267 23,29.7763939 23,29.5000267 L23,6.0000267 C23,5.9782372 22.9902954,5.9585838 22.9874878,5.9372826 Z M22,29.0000267 L1,29.0000267 L1,1.0000267 L16,1.0000267 L16,6.0000267 C16,6.5522728 16.4477539,7.0000267 17,7.0000267 L22,7.0000267 L22,29.0000267 Z M17,6.0000267 L17,1.0000267 L22,6.0000267 L17,6.0000267 Z" id="Shape" fill="#000000"></path>
                                <polygon id="Path" fill="#E6E6E6" points="17 1.0000267 17 6.0000267 22 6.0000267"></polygon>
                                <polygon id="Path" fill="#999999" points="4.2197266 16.5605736 8.7568359 18.5674095 8.7568359 17.2617455 5.7861328 16.0918236 5.7861328 16.0742455 8.7568359 14.894558 8.7568359 13.5888939 4.2197266 15.5967064"></polygon>
                                <polygon id="Path" fill="#999999" points="9.7001953 19.0449486 10.9960938 19.0449486 13.3007812 11.9140892 12.0048828 11.9140892"></polygon>
                                <polygon id="Path" fill="#999999" points="14.2451172 14.894558 17.2158203 16.0742455 17.2158203 16.0918236 14.2451172 17.2617455 14.2451172 18.5674095 18.7822266 16.5605736 18.7822266 15.5967064 14.2451172 13.5888939"></polygon>
                            </g>
                        </g>
                    </g>
                </g>
            </g>
        </g>
    </g>
</svg>