<?xml version="1.0" encoding="UTF-8"?>
<svg width="26px" height="30px" viewBox="0 0 26 30" version="1.1" xmlns="http://www.w3.org/2000/svg" xmlns:xlink="http://www.w3.org/1999/xlink">
    <!-- Generator: Sketch 52.6 (67491) - http://www.bohemiancoding.com/sketch -->
    <title>icn_pdf</title>
    <desc>Created with Sketch.</desc>
    <g id="Home" stroke="none" stroke-width="1" fill="none" fill-rule="evenodd">
        <g id="Home/Active/Desktop/Portrait" transform="translate(-260.000000, -270.000000)" fill-rule="nonzero">
            <g id="Middle-Area" transform="translate(238.000000, 76.000000)">
                <g id="Article" transform="translate(1.000000, 192.000000)">
                    <g id="icn_pdf" transform="translate(21.000000, 2.000000)">
                        <g id="expanded">
                            <g id="Group">
                                <path d="M19,6.0000267 L19,1.0000267 L4,1.0000267 L4,5.0000267 L17.5,5.0000267 C17.7763672,5.0000267 18,5.2236595 18,5.5000267 L18,12.5000267 C18,12.7763939 17.7763672,13.0000267 17.5,13.0000267 L4,13.0000267 L4,29.0000267 L25,29.0000267 L25,7.0000267 L20,7.0000267 C19.4477539,7.0000267 19,6.5522728 19,6.0000267 Z" id="Path" fill="#FFFFFF"></path>
                                <path d="M25.9874878,5.9372826 C25.97229,5.6993676 25.8827515,5.4685326 25.7070923,5.2928734 L20.7070923,0.2928734 C20.5158081,0.1015892 20.2600098,-3.43e-05 19.9997559,-3.43e-05 C19.9997559,-3.43e-05 19.9995728,2.67e-05 19.9994507,2.67e-05 L3.5,2.67e-05 C3.2236328,2.67e-05 3,0.2236595 3,0.5000267 L3,5.0000267 L0.5,5.0000267 C0.2236328,5.0000267 0,5.2236595 0,5.5000267 L0,12.5000267 C0,12.7763939 0.2236328,13.0000267 0.5,13.0000267 L3,13.0000267 L3,29.5000267 C3,29.7763939 3.2236328,30.0000267 3.5,30.0000267 L25.5,30.0000267 C25.7763672,30.0000267 26,29.7763939 26,29.5000267 L26,6.0000267 C26,5.9782372 25.9902954,5.9585838 25.9874878,5.9372826 Z M25,29.0000267 L4,29.0000267 L4,13.0000267 L17.5,13.0000267 C17.7763672,13.0000267 18,12.7763939 18,12.5000267 L18,5.5000267 C18,5.2236595 17.7763672,5.0000267 17.5,5.0000267 L4,5.0000267 L4,1.0000267 L19,1.0000267 L19,6.0000267 C19,6.5522728 19.4477539,7.0000267 20,7.0000267 L25,7.0000267 L25,29.0000267 Z M1,6.0000267 L17,6.0000267 L17,12.0000267 L1,12.0000267 L1,6.0000267 Z M20,6.0000267 L20,1.0000267 L25,6.0000267 L20,6.0000267 Z" id="Shape" fill="#000000"></path>
                                <polygon id="Path" fill="#E6E6E6" points="20 1.0000267 20 6.0000267 25 6.0000267"></polygon>
                                <path d="M5.0917969,8.4219017 C5.0917969,8.0986595 4.9013672,7.8906517 4.5742188,7.8906517 L4.0302734,7.8906517 L4.0302734,8.9619408 L4.5654296,8.9619408 C4.9013672,8.9619408 5.0917969,8.7500267 5.0917969,8.4219017 Z" id="Path" fill="#E62F32"></path>
                                <path d="M9.6835938,8.9668236 C9.6835938,8.2676048 9.2675782,7.8906517 8.6386719,7.8906517 L8.1660156,7.8906517 L8.1660156,10.0508079 L8.6386718,10.0508079 C9.2763672,10.050808 9.6835938,9.6738548 9.6835938,8.9668236 Z" id="Path" fill="#E62F32"></path>
                                <path d="M17,12.0000267 L17,6.0000267 L1,6.0000267 L1,12.0000267 L17,12.0000267 Z M12.2851562,7.5859642 C12.2851562,7.4668236 12.3466796,7.4004173 12.4658203,7.4004173 L13.9042969,7.4004173 C14.0234375,7.4004173 14.0898438,7.4668235 14.0898438,7.5859642 L14.0898438,7.7090111 C14.0898438,7.8291283 14.0234376,7.8906517 13.9042969,7.8906517 L12.8515625,7.8906517 L12.8515625,8.7803001 L13.7099609,8.7803001 C13.8291015,8.7803001 13.8955078,8.8418235 13.8955078,8.9619407 L13.8955078,9.0859641 C13.8955078,9.2051047 13.8291016,9.271511 13.7099609,9.271511 L12.8515625,9.271511 L12.8515625,10.3554954 C12.8515625,10.4795188 12.7890625,10.5410423 12.6699219,10.5410423 L12.4658203,10.5410423 C12.3466797,10.5410423 12.2851562,10.4795189 12.2851562,10.3554954 L12.2851562,7.5859642 Z M7.5996094,7.5859642 C7.5996094,7.4668236 7.6611328,7.4004173 7.7802735,7.4004173 L8.6699219,7.4004173 C9.6386719,7.4004173 10.2714844,7.9746361 10.2714844,8.9668235 C10.2714844,9.9570579 9.6386719,10.5410423 8.6699219,10.5410423 L7.7802734,10.5410423 C7.6611328,10.5410423 7.5996093,10.4795189 7.5996093,10.3554954 L7.5996093,7.5859642 Z M3.4638672,7.5859642 C3.4638672,7.4668236 3.5253906,7.4004173 3.6445313,7.4004173 L4.671875,7.4004173 C5.2597656,7.4004173 5.671875,7.8105735 5.671875,8.4219017 C5.671875,9.0332299 5.2597656,9.4570579 4.671875,9.4570579 L4.0302734,9.4570579 L4.0302734,10.3554954 C4.0302734,10.4795188 3.9677734,10.5410423 3.8486328,10.5410423 L3.6445312,10.5410423 C3.5253906,10.5410423 3.4638671,10.4795189 3.4638671,10.3554954 L3.4638671,7.5859642 Z" id="Shape" fill="#E74C3C"></path>
                                <path d="M3.6445312,10.5410423 L3.8486328,10.5410423 C3.9677734,10.5410423 4.0302734,10.4795189 4.0302734,10.3554954 L4.0302734,9.457058 L4.671875,9.457058 C5.2597656,9.457058 5.671875,9.0332299 5.671875,8.4219018 C5.671875,7.8105737 5.2597656,7.4004174 4.671875,7.4004174 L3.6445312,7.4004174 C3.5253906,7.4004174 3.4638671,7.4668236 3.4638671,7.5859643 L3.4638671,10.3554955 C3.4638672,10.4795189 3.5253906,10.5410423 3.6445312,10.5410423 Z M4.0302734,7.8906517 L4.5742187,7.8906517 C4.9013671,7.8906517 5.0917968,8.0986595 5.0917968,8.4219017 C5.0917968,8.7500267 4.9013671,8.9619408 4.5654296,8.9619408 L4.0302734,8.9619408 L4.0302734,7.8906517 Z" id="Shape" fill="#FFFFFF"></path>
                                <path d="M7.7802734,10.5410423 L8.6699218,10.5410423 C9.6386718,10.5410423 10.2714843,9.9570579 10.2714843,8.9668235 C10.2714843,7.974636 9.6386718,7.4004173 8.6699218,7.4004173 L7.7802734,7.4004173 C7.6611328,7.4004173 7.5996093,7.4668235 7.5996093,7.5859642 L7.5996093,10.3554954 C7.5996094,10.4795189 7.6611328,10.5410423 7.7802734,10.5410423 Z M8.1660156,7.8906517 L8.6386718,7.8906517 C9.267578,7.8906517 9.6835937,8.2676048 9.6835937,8.9668236 C9.6835937,9.6738548 9.2763671,10.050808 8.6386718,10.050808 L8.1660156,10.050808 L8.1660156,7.8906517 Z" id="Shape" fill="#FFFFFF"></path>
                                <path d="M12.4658203,10.5410423 L12.6699219,10.5410423 C12.7890625,10.5410423 12.8515625,10.4795189 12.8515625,10.3554954 L12.8515625,9.2715111 L13.7099609,9.2715111 C13.8291015,9.2715111 13.8955078,9.2051049 13.8955078,9.0859642 L13.8955078,8.9619408 C13.8955078,8.8418236 13.8291016,8.7803002 13.7099609,8.7803002 L12.8515625,8.7803002 L12.8515625,7.8906517 L13.9042969,7.8906517 C14.0234375,7.8906517 14.0898438,7.8291283 14.0898438,7.7090111 L14.0898438,7.5859642 C14.0898438,7.4668236 14.0234376,7.4004173 13.9042969,7.4004173 L12.4658203,7.4004173 C12.3466797,7.4004173 12.2851562,7.4668235 12.2851562,7.5859642 L12.2851562,10.3554954 C12.2851562,10.4795189 12.3466797,10.5410423 12.4658203,10.5410423 Z" id="Path" fill="#FFFFFF"></path>
                            </g>
                        </g>
                    </g>
                </g>
            </g>
        </g>
    </g>
</svg>