<?xml version="1.0" encoding="UTF-8"?>
<svg width="23px" height="30px" viewBox="0 0 23 30" version="1.1" xmlns="http://www.w3.org/2000/svg" xmlns:xlink="http://www.w3.org/1999/xlink">
    <!-- Generator: Sketch 52.6 (67491) - http://www.bohemiancoding.com/sketch -->
    <title>icn_mp3</title>
    <desc>Created with Sketch.</desc>
    <g id="Home" stroke="none" stroke-width="1" fill="none" fill-rule="evenodd">
        <g id="Home/Active/Desktop/Portrait" transform="translate(-263.000000, -392.000000)" fill-rule="nonzero">
            <g id="Middle-Area" transform="translate(238.000000, 76.000000)">
                <g id="Podcast" transform="translate(1.000000, 315.000000)">
                    <g id="icn_mp3" transform="translate(24.000000, 1.000000)">
                        <g id="expanded">
                            <g id="Group">
                                <path d="M16,6.0000305 L16,1.0000305 L1,1.0000305 L1,29.0000305 L22,29.0000305 L22,7.0000305 L17,7.0000305 C16.4477539,7.0000305 16,6.5522766 16,6.0000305 Z M8.6796875,27.1035461 L8.4804688,27.1035461 C8.3652344,27.1035461 8.2988282,27.0420227 8.2900391,26.9267883 L8.1699219,25.3476867 C8.1572266,25.1387023 8.1660157,24.860382 8.1660157,24.860382 L8.1572266,24.860382 C8.1572266,24.860382 8.0595704,25.1660461 7.9892578,25.3476867 L7.5332031,26.4179992 C7.4980469,26.5156554 7.4316406,26.5644836 7.3251953,26.5644836 L7.1396484,26.5644836 C7.0283203,26.5644836 6.961914,26.5156555 6.9267578,26.4179992 L6.4755859,25.3476867 C6.4042968,25.1660461 6.3027343,24.8554992 6.3027343,24.8554992 L6.2939453,24.8554992 C6.2939453,24.8554992 6.3027344,25.1387023 6.2900391,25.3476867 L6.1699219,26.9267883 C6.1611328,27.0420227 6.0996094,27.1035461 5.9804688,27.1035461 L5.78125,27.1035461 C5.6572266,27.1035461 5.5947266,27.0332336 5.6035156,26.914093 L5.8291015,24.1387024 C5.8427734,24.0244446 5.9042968,23.9629212 6.0195312,23.9629212 L6.2988281,23.9629212 C6.4042969,23.9629212 6.4707031,24.0107728 6.5068359,24.1133118 L7.0683593,25.5156556 C7.1396484,25.7012025 7.227539,25.9756165 7.227539,25.9756165 L7.2363281,25.9756165 C7.2363281,25.9756165 7.3203125,25.7012024 7.3916015,25.5156556 L7.9531249,24.1133118 C7.9892577,24.0107727 8.055664,23.9629212 8.1660155,23.9629212 L8.4404296,23.9629212 C8.555664,23.9629212 8.6220702,24.0244446 8.6308593,24.1387024 L8.8564452,26.914093 C8.8652344,27.0332336 8.8027344,27.1035461 8.6796875,27.1035461 Z M12.1523438,26.0195618 L11.5107422,26.0195618 L11.5107422,26.9179993 C11.5107422,27.0420227 11.4482422,27.1035462 11.3291016,27.1035462 L11.125,27.1035462 C11.0058594,27.1035462 10.9443359,27.0420228 10.9443359,26.9179993 L10.9443359,24.148468 C10.9443359,24.0293274 11.0058593,23.9629211 11.125,23.9629211 L12.1523438,23.9629211 C12.7402344,23.9629211 13.1523438,24.3730773 13.1523438,24.9844055 C13.1523438,25.5957337 12.7402344,26.0195618 12.1523438,26.0195618 Z M15.8632812,27.1572571 C15.4248046,27.1572571 15.1103515,26.9668274 14.9560546,26.851593 C14.8632812,26.7812805 14.8535155,26.6875305 14.9199218,26.5957336 L15.008789,26.4580383 C15.0751952,26.3554992 15.1591796,26.351593 15.2607421,26.4179992 C15.3759765,26.4980773 15.5751952,26.617218 15.8271483,26.617218 C16.1552733,26.617218 16.3935545,26.4179992 16.3935545,26.148468 C16.3935545,25.8164368 16.088867,25.6621399 15.7216795,25.6621399 L15.6552733,25.6621399 C15.5527342,25.6621399 15.4960936,25.6260071 15.4511717,25.5332337 L15.4335936,25.4980775 C15.3935545,25.4179994 15.4072264,25.334015 15.4736327,25.2588197 L15.9560546,24.6875306 C16.0751952,24.5420228 16.1816405,24.4492494 16.1816405,24.4492494 L16.1816405,24.4394838 C16.1816405,24.4394838 16.0839843,24.4531557 15.9023436,24.4531557 L15.1464842,24.4531557 C15.026367,24.4531557 14.9648436,24.3916323 14.9648436,24.2715151 L14.9648436,24.148468 C14.9648436,24.0293274 15.026367,23.9629211 15.1464842,23.9629211 L16.6943358,23.9629211 C16.8183592,23.9629211 16.8808592,24.0244445 16.8808592,24.1435852 L16.8808592,24.1924133 C16.8808592,24.2851867 16.8583983,24.351593 16.7968748,24.4179992 L16.1103514,25.2099914 C16.548828,25.2715148 16.9687498,25.5820617 16.9687498,26.126007 C16.96875,26.6621399 16.5664062,27.1572571 15.8632812,27.1572571 Z M17,11.0000305 L17,11.5000305 L17,18.0000305 C17,18.049469 16.9852905,18.0942688 16.9719238,18.1393738 C16.831604,19.136261 15.7836914,19.9170227 14.5,19.9170227 C13.1210938,19.9170227 12,19.0195618 12,17.9170227 C12,16.8144836 13.1210938,15.9170227 14.5,15.9170227 C15.0650635,15.9170227 15.5809326,16.0733948 16,16.3271789 L16,12.0664367 L9,12.9414367 L9,19.0000305 C9,19.049469 8.9852905,19.0942688 8.9719238,19.1393738 C8.831604,20.136261 7.7836914,20.9170227 6.5,20.9170227 C5.1210938,20.9170227 4,20.0195618 4,18.9170227 C4,17.8144836 5.1210938,16.9170227 6.5,16.9170227 C7.0650635,16.9170227 7.5809326,17.0733948 8,17.3271789 L8,12.5000305 L8,12.0000305 L8,9.5000305 C8,9.2480774 8.1875,9.0351867 8.4375,9.0039367 L16.4374981,8.0039367 C16.5878906,7.9834289 16.7236328,8.0303039 16.8310547,8.1250305 C16.9384766,8.2197571 17,8.3564758 17,8.5000305 L17,11.0000305 Z" id="Shape" fill="#FFFFFF"></path>
                                <path d="M12.0546875,24.4531555 L11.5107422,24.4531555 L11.5107422,25.5244446 L12.0458984,25.5244446 C12.3818359,25.5244446 12.5722656,25.3125305 12.5722656,24.9844055 C12.5722656,24.6611633 12.3818359,24.4531555 12.0546875,24.4531555 Z" id="Path" fill="#FFFFFF"></path>
                                <path d="M22.9874878,5.9372864 C22.97229,5.6993714 22.8827515,5.4685364 22.7070923,5.2929383 L17.7070923,0.2929383 C17.5158081,0.1015931 17.2600098,-3.05e-05 16.9997559,-3.05e-05 C16.9997559,-3.05e-05 16.9995728,3.05e-05 16.9994507,3.05e-05 L0.5,3.05e-05 C0.2236328,3.05e-05 0,0.2236633 0,0.5000305 L0,29.5000305 C0,29.7763977 0.2236328,30.0000305 0.5,30.0000305 L22.5,30.0000305 C22.7763672,30.0000305 23,29.7763977 23,29.5000305 L23,6.0000305 C23,5.978241 22.9902954,5.9585876 22.9874878,5.9372864 Z M22,29.0000305 L1,29.0000305 L1,1.0000305 L16,1.0000305 L16,6.0000305 C16,6.5522766 16.4477539,7.0000305 17,7.0000305 L22,7.0000305 L22,29.0000305 Z M17,6.0000305 L17,1.0000305 L22,6.0000305 L17,6.0000305 Z" id="Shape" fill="#000000"></path>
                                <polygon id="Path" fill="#E6E6E6" points="17 1.0000305 17 6.0000305 22 6.0000305"></polygon>
                                <path d="M8.4404297,23.9629211 L8.1660156,23.9629211 C8.055664,23.9629211 7.9892578,24.0107727 7.953125,24.1133117 L7.3916016,25.5156555 C7.3203125,25.7012024 7.2363282,25.9756164 7.2363282,25.9756164 L7.2275391,25.9756164 C7.2275391,25.9756164 7.1396485,25.7012023 7.0683594,25.5156555 L6.506836,24.1133117 C6.4707032,24.0107726 6.4042969,23.9629211 6.2988282,23.9629211 L6.0195312,23.9629211 C5.9042968,23.9629211 5.8427734,24.0244445 5.8291015,24.1387023 L5.6035156,26.914093 C5.5947265,27.0332336 5.6572265,27.1035461 5.78125,27.1035461 L5.9804688,27.1035461 C6.0996094,27.1035461 6.1611329,27.0420227 6.1699219,26.9267883 L6.2900391,25.3476867 C6.3027344,25.1387023 6.2939453,24.8554992 6.2939453,24.8554992 L6.3027344,24.8554992 C6.3027344,24.8554992 6.4042969,25.1660461 6.475586,25.3476867 L6.9267579,26.4179992 C6.9619141,26.5156554 7.0283204,26.5644836 7.1396485,26.5644836 L7.3251954,26.5644836 C7.4316407,26.5644836 7.498047,26.5156555 7.5332032,26.4179992 L7.9892579,25.3476867 C8.0595704,25.1660461 8.1572267,24.860382 8.1572267,24.860382 L8.1660158,24.860382 C8.1660158,24.860382 8.1572267,25.1387023 8.169922,25.3476867 L8.2900392,26.9267883 C8.2988283,27.0420227 8.3652345,27.1035461 8.4804689,27.1035461 L8.6796877,27.1035461 C8.8027346,27.1035461 8.8652346,27.0332336 8.8564455,26.914093 L8.6308596,24.1387024 C8.6220703,24.0244446 8.5556641,23.9629211 8.4404297,23.9629211 Z" id="Path" fill="#000000"></path>
                                <path d="M12.1523438,23.9629211 L11.125,23.9629211 C11.0058594,23.9629211 10.9443359,24.0293273 10.9443359,24.148468 L10.9443359,26.9179992 C10.9443359,27.0420226 11.0058593,27.1035461 11.125,27.1035461 L11.3291016,27.1035461 C11.4482422,27.1035461 11.5107422,27.0420227 11.5107422,26.9179992 L11.5107422,26.0195617 L12.1523438,26.0195617 C12.7402344,26.0195617 13.1523438,25.5957336 13.1523438,24.9844055 C13.1523438,24.3730774 12.7402344,23.9629211 12.1523438,23.9629211 Z M12.0458984,25.5244446 L11.5107422,25.5244446 L11.5107422,24.4531555 L12.0546875,24.4531555 C12.3818359,24.4531555 12.5722656,24.6611633 12.5722656,24.9844055 C12.5722656,25.3125305 12.3818359,25.5244446 12.0458984,25.5244446 Z" id="Shape" fill="#000000"></path>
                                <path d="M16.1103516,25.2099915 L16.796875,24.4179993 C16.8583984,24.3515931 16.8808594,24.2851868 16.8808594,24.1924134 L16.8808594,24.1435853 C16.8808594,24.0244447 16.8183594,23.9629212 16.694336,23.9629212 L15.1464844,23.9629212 C15.0263672,23.9629212 14.9648438,24.0293274 14.9648438,24.1484681 L14.9648438,24.271515 C14.9648438,24.3916322 15.0263672,24.4531556 15.1464844,24.4531556 L15.9023438,24.4531556 C16.0839844,24.4531556 16.1816407,24.4394837 16.1816407,24.4394837 L16.1816407,24.4492493 C16.1816407,24.4492493 16.0751954,24.5420227 15.9560548,24.6875305 L15.4736329,25.2588196 C15.4072267,25.3340149 15.3935548,25.4179993 15.4335938,25.4980774 L15.4511719,25.5332336 C15.4960938,25.626007 15.5527344,25.6621398 15.6552735,25.6621398 L15.7216797,25.6621398 C16.0888672,25.6621398 16.3935547,25.8164367 16.3935547,26.1484679 C16.3935547,26.4179991 16.1552735,26.6172179 15.8271485,26.6172179 C15.5751954,26.6172179 15.3759766,26.4980773 15.2607423,26.4179991 C15.1591798,26.3515929 15.0751954,26.3554991 15.0087892,26.4580382 L14.919922,26.5957335 C14.8535158,26.6875304 14.8632814,26.7812804 14.9560548,26.8515929 C15.1103517,26.9668273 15.4248048,27.157257 15.8632814,27.157257 C16.5664064,27.157257 16.9687502,26.6621398 16.9687502,26.126007 C16.96875,25.5820618 16.5488281,25.2715149 16.1103516,25.2099915 Z" id="Path" fill="#000000"></path>
                                <path d="M16.4374981,8.0039368 L8.4375,9.0039368 C8.1875,9.0351868 8,9.2480774 8,9.5000305 L8,12.0000305 L8,12.5000305 L8,17.3271789 C7.5809326,17.0733947 7.0650635,16.9170227 6.5,16.9170227 C5.1210938,16.9170227 4,17.8144836 4,18.9170227 C4,20.0195618 5.1210938,20.9170227 6.5,20.9170227 C7.7836914,20.9170227 8.831604,20.136261 8.9719238,19.1393738 C8.9852905,19.0942688 9,19.049469 9,19.0000305 L9,12.9414367 L16,12.0664367 L16,16.3271789 C15.5809326,16.0733947 15.0650635,15.9170227 14.5,15.9170227 C13.1210938,15.9170227 12,16.8144836 12,17.9170227 C12,19.0195618 13.1210938,19.9170227 14.5,19.9170227 C15.7836914,19.9170227 16.831604,19.136261 16.9719238,18.1393738 C16.9852905,18.0942688 17,18.049469 17,18.0000305 L17,11.5000305 L17,11.0000305 L17,8.5000305 C17,8.3564758 16.9384766,8.2197571 16.8310547,8.1250305 C16.7236328,8.0303039 16.5878906,7.983429 16.4374981,8.0039368 Z" id="Path" fill="#3498DB"></path>
                            </g>
                        </g>
                    </g>
                </g>
            </g>
        </g>
    </g>
</svg>