<?xml version="1.0" encoding="UTF-8"?>
<svg width="26px" height="30px" viewBox="0 0 26 30" version="1.1" xmlns="http://www.w3.org/2000/svg" xmlns:xlink="http://www.w3.org/1999/xlink">
    <!-- Generator: Sketch 52.6 (67491) - http://www.bohemiancoding.com/sketch -->
    <title>icn_ppt</title>
    <desc>Created with Sketch.</desc>
    <g id="Home" stroke="none" stroke-width="1" fill="none" fill-rule="evenodd">
        <g id="Home/Active/Desktop/Portrait" transform="translate(-260.000000, -330.000000)">
            <g id="Middle-Area" transform="translate(238.000000, 76.000000)">
                <g id="Presentation" transform="translate(1.000000, 251.000000)">
                    <g id="icn_ppt" transform="translate(21.000000, 3.000000)">
                        <g id="expanded">
                            <g id="Group">
                                <path d="M19,6.0000267 L19,1.0000267 L4,1.0000267 L4,5.0000267 L17.5,5.0000267 C17.7763672,5.0000267 18,5.2236595 18,5.5000267 L18,12.5000267 C18,12.7763939 17.7763672,13.0000267 17.5,13.0000267 L4,13.0000267 L4,29.0000267 L25,29.0000267 L25,7.0000267 L20,7.0000267 C19.4477539,7.0000267 19,6.5522728 19,6.0000267 Z" id="Path" fill="#FFFFFF" fill-rule="nonzero"></path>
                                <path d="M25.9874878,5.9372826 C25.97229,5.6993676 25.8827515,5.4685326 25.7070923,5.2928734 L20.7070923,0.2928734 C20.5158081,0.1015892 20.2600098,-3.43e-05 19.9997559,-3.43e-05 C19.9997559,-3.43e-05 19.9995728,2.67e-05 19.9994507,2.67e-05 L3.5,2.67e-05 C3.2236328,2.67e-05 3,0.2236595 3,0.5000267 L3,5.0000267 L0.5,5.0000267 C0.2236328,5.0000267 0,5.2236595 0,5.5000267 L0,12.5000267 C0,12.7763939 0.2236328,13.0000267 0.5,13.0000267 L3,13.0000267 L3,29.5000267 C3,29.7763939 3.2236328,30.0000267 3.5,30.0000267 L25.5,30.0000267 C25.7763672,30.0000267 26,29.7763939 26,29.5000267 L26,6.0000267 C26,5.9782372 25.9902954,5.9585838 25.9874878,5.9372826 Z M25,29.0000267 L4,29.0000267 L4,13.0000267 L17.5,13.0000267 C17.7763672,13.0000267 18,12.7763939 18,12.5000267 L18,5.5000267 C18,5.2236595 17.7763672,5.0000267 17.5,5.0000267 L4,5.0000267 L4,1.0000267 L19,1.0000267 L19,6.0000267 C19,6.5522728 19.4477539,7.0000267 20,7.0000267 L25,7.0000267 L25,29.0000267 Z M1,6.0000267 L17,6.0000267 L17,12.0000267 L1,12.0000267 L1,6.0000267 Z M20,6.0000267 L20,1.0000267 L25,6.0000267 L20,6.0000267 Z" id="Shape" fill="#000000" fill-rule="nonzero"></path>
                                <polygon id="Path" fill="#E6E6E6" fill-rule="nonzero" points="20 1.0000267 20 6.0000267 25 6.0000267"></polygon>
                                <path d="M5.0917969,8.4219017 C5.0917969,8.0986595 4.9013672,7.8906517 4.5742188,7.8906517 L4.0302734,7.8906517 L4.0302734,8.9619408 L4.5654296,8.9619408 C4.9013672,8.9619408 5.0917969,8.7500267 5.0917969,8.4219017 Z" id="Path" fill="#E67E22" fill-rule="nonzero"></path>
                                <path d="M10.6835938,9.04357472 C10.6835938,7.74881872 9.58706882,7.0508079 7.92941112,7.0508079 L6.6835938,7.0508079 L6.6835938,11.0508079 L7.92941085,11.0508079 C9.61023468,11.0508081 10.6835938,10.3527971 10.6835938,9.04357472 Z" id="Path" fill="#E67E22" fill-rule="nonzero"></path>
                                <path d="M17,12.0000267 L17,6.0000267 L1,6.0000267 L1,12.0000267 L17,12.0000267 Z M12.2851562,7.5859642 C12.2851562,7.4668236 12.3466796,7.4004173 12.4658203,7.4004173 L13.9042969,7.4004173 C14.0234375,7.4004173 14.0898438,7.4668235 14.0898438,7.5859642 L14.0898438,7.7090111 C14.0898438,7.8291283 14.0234376,7.8906517 13.9042969,7.8906517 L12.8515625,7.8906517 L12.8515625,8.7803001 L13.7099609,8.7803001 C13.8291015,8.7803001 13.8955078,8.8418235 13.8955078,8.9619407 L13.8955078,9.0859641 C13.8955078,9.2051047 13.8291016,9.271511 13.7099609,9.271511 L12.8515625,9.271511 L12.8515625,10.3554954 C12.8515625,10.4795188 12.7890625,10.5410423 12.6699219,10.5410423 L12.4658203,10.5410423 C12.3466797,10.5410423 12.2851562,10.4795189 12.2851562,10.3554954 L12.2851562,7.5859642 Z M7.5996094,7.5859642 C7.5996094,7.4668236 7.6611328,7.4004173 7.7802735,7.4004173 L8.6699219,7.4004173 C9.6386719,7.4004173 10.2714844,7.9746361 10.2714844,8.9668235 C10.2714844,9.9570579 9.6386719,10.5410423 8.6699219,10.5410423 L7.7802734,10.5410423 C7.6611328,10.5410423 7.5996093,10.4795189 7.5996093,10.3554954 L7.5996093,7.5859642 Z M3.4638672,7.5859642 C3.4638672,7.4668236 3.5253906,7.4004173 3.6445313,7.4004173 L4.671875,7.4004173 C5.2597656,7.4004173 5.671875,7.8105735 5.671875,8.4219017 C5.671875,9.0332299 5.2597656,9.4570579 4.671875,9.4570579 L4.0302734,9.4570579 L4.0302734,10.3554954 C4.0302734,10.4795188 3.9677734,10.5410423 3.8486328,10.5410423 L3.6445312,10.5410423 C3.5253906,10.5410423 3.4638671,10.4795189 3.4638671,10.3554954 L3.4638671,7.5859642 Z" id="Shape" fill="#E67E22" fill-rule="nonzero"></path>
                                <path d="M3.6445312,10.5410423 L3.8486328,10.5410423 C3.9677734,10.5410423 4.0302734,10.4795189 4.0302734,10.3554954 L4.0302734,9.457058 L4.671875,9.457058 C5.2597656,9.457058 5.671875,9.0332299 5.671875,8.4219018 C5.671875,7.8105737 5.2597656,7.4004174 4.671875,7.4004174 L3.6445312,7.4004174 C3.5253906,7.4004174 3.4638671,7.4668236 3.4638671,7.5859643 L3.4638671,10.3554955 C3.4638672,10.4795189 3.5253906,10.5410423 3.6445312,10.5410423 Z M4.0302734,7.8906517 L4.5742187,7.8906517 C4.9013671,7.8906517 5.0917968,8.0986595 5.0917968,8.4219017 C5.0917968,8.7500267 4.9013671,8.9619408 4.5654296,8.9619408 L4.0302734,8.9619408 L4.0302734,7.8906517 Z" id="Shape" fill="#FFFFFF" fill-rule="nonzero"></path>
                                <path d="M7.1806641,10.5410423 L7.3847657,10.5410423 C7.5039063,10.5410423 7.5664063,10.4795189 7.5664063,10.3554954 L7.5664063,9.457058 L8.2080079,9.457058 C8.7958985,9.457058 9.2080079,9.0332299 9.2080079,8.4219018 C9.2080079,7.8105737 8.7958985,7.4004174 8.2080079,7.4004174 L7.1806641,7.4004174 C7.0615235,7.4004174 7,7.4668236 7,7.5859643 L7,10.3554955 C7.0000001,10.4795189 7.0615235,10.5410423 7.1806641,10.5410423 Z M7.5664063,7.8906517 L8.1103516,7.8906517 C8.4375,7.8906517 8.6279297,8.0986595 8.6279297,8.4219017 C8.6279297,8.7500267 8.4375,8.9619408 8.1015625,8.9619408 L7.5664063,8.9619408 L7.5664063,7.8906517 Z" id="Shape" fill="#FFFFFF" fill-rule="nonzero"></path>
                                <path d="M11.2002165,10.5410423 L11.426407,10.5410423 C11.5584416,10.5410423 11.6277056,10.4795189 11.6277056,10.3554954 L11.6277056,7.8906517 L12.7943723,7.8906517 C12.9264069,7.8906517 13,7.8291283 13,7.7090111 L13,7.5859642 C13,7.4668236 12.926407,7.4004173 12.7943723,7.4004173 L11.2002165,7.4004173 C11.0681819,7.4004173 11,7.4668235 11,7.5859642 L11,10.3554954 C11,10.4795189 11.0681819,10.5410423 11.2002165,10.5410423 Z" id="Path" fill="#FFFFFF" fill-rule="nonzero" transform="translate(12.000000, 8.970730) scale(-1, 1) translate(-12.000000, -8.970730) "></path>
                                <rect id="Rectangle" fill="#E67E22" x="13" y="8" width="1" height="2"></rect>
                            </g>
                        </g>
                    </g>
                </g>
            </g>
        </g>
    </g>
</svg>