<?xml version="1.0" encoding="UTF-8"?>
<svg width="23px" height="30px" viewBox="0 0 23 30" version="1.1" xmlns="http://www.w3.org/2000/svg" xmlns:xlink="http://www.w3.org/1999/xlink">
    <!-- Generator: Sketch 52.6 (67491) - http://www.bohemiancoding.com/sketch -->
    <title>icn_video</title>
    <desc>Created with Sketch.</desc>
    <g id="Home" stroke="none" stroke-width="1" fill="none" fill-rule="evenodd">
        <g id="Home/Active/Desktop/Portrait" transform="translate(-263.000000, -145.000000)">
            <g id="Middle-Area" transform="translate(238.000000, 76.000000)">
                <g id="Video" transform="translate(1.000000, 68.000000)">
                    <g id="icn_video" transform="translate(24.000000, 1.000000)">
                        <g id="Icons_Outline" fill-rule="nonzero">
                            <g id="Group">
                                <path d="M22.5,6.0000305 L17.5,2.5000305 L15.5,2.5000305 L15.5,0.5000305 L7.5,0.5000305 L7.5,2.5000305 L3.5,2.5000305 L3.5,0.5000305 L0.5,0.5000305 L0.5,29.5000305 L3.5,29.5000305 L3.5,26.5000305 L7.5,26.5000305 L7.5,29.5000305 L15.5,29.5000305 L15.5,26.5000305 L19.5,26.5000305 L19.5,29.5000305 L22.5,29.5000305 L22.5,6.0000305 Z M7.5,23.5000305 L3.5,23.5000305 L3.5,19.5000305 L7.5,19.5000305 L7.5,23.5000305 Z M7.5,16.5000305 L3.5,16.5000305 L3.5,12.5000305 L7.5,12.5000305 L7.5,16.5000305 Z M7.5,9.5000305 L3.5,9.5000305 L3.5,5.5000305 L7.5,5.5000305 L7.5,9.5000305 Z M19.5,23.5000305 L15.5,23.5000305 L15.5,19.5000305 L19.5,19.5000305 L19.5,23.5000305 Z M19.5,16.5000305 L15.5,16.5000305 L15.5,12.5000305 L19.5,12.5000305 L19.5,16.5000305 Z M19.5,9.5000305 L15.5,9.5000305 L15.5,5.5000305 L19.5,5.5000305 L19.5,9.5000305 Z" id="Shape" stroke="#666666" fill="#FFFFFF" stroke-linejoin="round"></path>
                                <g transform="translate(16.000000, 0.000000)">
                                    <path d="M1,7.0000305 C0.7236328,7.0000305 0,6.2763977 0,6.0000305 L0,1.0000305 C0,0.7978821 0.3720703,0.6152649 0.5585938,0.5381164 C0.6201172,0.5127258 0.8105469,0.5000305 0.875,0.5000305 C1.0048828,0.5000305 1.1953125,0.5508117 1.2910156,0.6465149 L6.3222656,5.6465149 C6.4648437,5.789093 6.5234375,6.2549133 6.446289,6.4414368 C6.3691405,6.6279603 6.2021484,7.0000305 6,7.0000305 L1,7.0000305 Z" id="Path" fill="#E6E6E6"></path>
                                    <path d="M1,1.0000305 L6,6.0000305 L1,6.0000305 L1,1.0000305 Z M0.9997711,0 C0.8709564,0 0.7410431,0.0249023 0.6173248,0.076149 C0.2436371,0.2309341 0,0.5955734 0,1.0000305 L0,6.0000305 C0,6.5523071 0.4477234,7.0000305 1,7.0000305 L6,7.0000305 C6.4044647,7.0000305 6.769104,6.7563934 6.9238739,6.3827133 C7.0786591,6.0090408 6.993103,5.5789184 6.7071075,5.292923 L1.7071075,0.292923 C1.5158081,0.1016235 1.2600098,0 0.9997711,0 Z" id="Shape" fill="#666666"></path>
                                </g>
                            </g>
                        </g>
                        <g id="expanded" fill-rule="nonzero">
                            <g id="Group">
                                <path d="M20,9.5000305 C20,9.7763977 19.7763672,10.0000305 19.5,10.0000305 L15.5,10.0000305 C15.2236328,10.0000305 15,9.7763977 15,9.5000305 L15,5.5000305 C15,5.2236633 15.2236328,5.0000305 15.5,5.0000305 L16,5.0000305 L16,3.0000305 L15.5,3.0000305 C15.2236328,3.0000305 15,2.7763977 15,2.5000305 L15,1.0000305 L8,1.0000305 L8,2.5000305 C8,2.7763977 7.7763672,3.0000305 7.5,3.0000305 L3.5,3.0000305 C3.2236328,3.0000305 3,2.7763977 3,2.5000305 L3,1.0000305 L1,1.0000305 L1,29.0000305 L3,29.0000305 L3,26.5000305 C3,26.2236633 3.2236328,26.0000305 3.5,26.0000305 L7.5,26.0000305 C7.7763672,26.0000305 8,26.2236633 8,26.5000305 L8,29.0000305 L15,29.0000305 L15,26.5000305 C15,26.2236633 15.2236328,26.0000305 15.5,26.0000305 L19.5,26.0000305 C19.7763672,26.0000305 20,26.2236633 20,26.5000305 L20,29.0000305 L22,29.0000305 L22,7.0000305 L20,7.0000305 L20,9.5000305 Z M8,23.5000305 C8,23.7763977 7.7763672,24.0000305 7.5,24.0000305 L3.5,24.0000305 C3.2236328,24.0000305 3,23.7763977 3,23.5000305 L3,19.5000305 C3,19.2236633 3.2236328,19.0000305 3.5,19.0000305 L7.5,19.0000305 C7.7763672,19.0000305 8,19.2236633 8,19.5000305 L8,23.5000305 Z M8,16.5000305 C8,16.7763977 7.7763672,17.0000305 7.5,17.0000305 L3.5,17.0000305 C3.2236328,17.0000305 3,16.7763977 3,16.5000305 L3,12.5000305 C3,12.2236633 3.2236328,12.0000305 3.5,12.0000305 L7.5,12.0000305 C7.7763672,12.0000305 8,12.2236633 8,12.5000305 L8,16.5000305 Z M8,9.5000305 C8,9.7763977 7.7763672,10.0000305 7.5,10.0000305 L3.5,10.0000305 C3.2236328,10.0000305 3,9.7763977 3,9.5000305 L3,5.5000305 C3,5.2236633 3.2236328,5.0000305 3.5,5.0000305 L7.5,5.0000305 C7.7763672,5.0000305 8,5.2236633 8,5.5000305 L8,9.5000305 Z M20,23.5000305 C20,23.7763977 19.7763672,24.0000305 19.5,24.0000305 L15.5,24.0000305 C15.2236328,24.0000305 15,23.7763977 15,23.5000305 L15,19.5000305 C15,19.2236633 15.2236328,19.0000305 15.5,19.0000305 L19.5,19.0000305 C19.7763672,19.0000305 20,19.2236633 20,19.5000305 L20,23.5000305 Z M20,16.5000305 C20,16.7763977 19.7763672,17.0000305 19.5,17.0000305 L15.5,17.0000305 C15.2236328,17.0000305 15,16.7763977 15,16.5000305 L15,12.5000305 C15,12.2236633 15.2236328,12.0000305 15.5,12.0000305 L19.5,12.0000305 C19.7763672,12.0000305 20,12.2236633 20,12.5000305 L20,16.5000305 Z" id="Shape" fill="#95A5A6"></path>
                                <path d="M22.9882812,5.95224 C22.9763793,5.7090759 22.8864135,5.4721985 22.7070922,5.2929382 L17.7070922,0.2929382 C17.515808,0.101593 17.2600097,-3.06e-05 16.9997558,-3.06e-05 C16.8709716,-3.06e-05 16.7410278,0.0248717 16.6173095,0.0761413 C16.2436523,0.2309265 16,0.5955505 16,1.0000305 L16,0.5000305 C16,0.2236633 15.7763672,3.05e-05 15.5,3.05e-05 L7.5,3.05e-05 C7.2236328,3.05e-05 7,0.2236633 7,0.5000305 L7,2.0000305 L4,2.0000305 L4,0.5000305 C4,0.2236633 3.7763672,3.05e-05 3.5,3.05e-05 L0.5,3.05e-05 C0.2236328,3.05e-05 0,0.2236633 0,0.5000305 L0,29.5000305 C0,29.7763977 0.2236328,30.0000305 0.5,30.0000305 L3.5,30.0000305 C3.7763672,30.0000305 4,29.7763977 4,29.5000305 L4,27.0000305 L7,27.0000305 L7,29.5000305 C7,29.7763977 7.2236328,30.0000305 7.5,30.0000305 L15.5,30.0000305 C15.7763672,30.0000305 16,29.7763977 16,29.5000305 L16,27.0000305 L19,27.0000305 L19,29.5000305 C19,29.7763977 19.2236328,30.0000305 19.5,30.0000305 L22.5,30.0000305 C22.7763672,30.0000305 23,29.7763977 23,29.5000305 L23,6.0000305 C23,5.9831238 22.9899902,5.9688416 22.9882812,5.95224 Z M22,29.0000305 L20,29.0000305 L20,26.5000305 C20,26.2236633 19.7763672,26.0000305 19.5,26.0000305 L15.5,26.0000305 C15.2236328,26.0000305 15,26.2236633 15,26.5000305 L15,29.0000305 L8,29.0000305 L8,26.5000305 C8,26.2236633 7.7763672,26.0000305 7.5,26.0000305 L3.5,26.0000305 C3.2236328,26.0000305 3,26.2236633 3,26.5000305 L3,29.0000305 L1,29.0000305 L1,1.0000305 L3,1.0000305 L3,2.5000305 C3,2.7763977 3.2236328,3.0000305 3.5,3.0000305 L7.5,3.0000305 C7.7763672,3.0000305 8,2.7763977 8,2.5000305 L8,1.0000305 L15,1.0000305 L15,2.5000305 C15,2.7763977 15.2236328,3.0000305 15.5,3.0000305 L16,3.0000305 L16,5.0000305 L15.5,5.0000305 C15.2236328,5.0000305 15,5.2236633 15,5.5000305 L15,9.5000305 C15,9.7763977 15.2236328,10.0000305 15.5,10.0000305 L19.5,10.0000305 C19.7763672,10.0000305 20,9.7763977 20,9.5000305 L20,7.0000305 L22,7.0000305 L22,29.0000305 Z M17,7.0000305 L19,7.0000305 L19,9.0000305 L16,9.0000305 L16,6.0000305 C16,6.5522766 16.4477539,7.0000305 17,7.0000305 Z M22,6.0000305 L19,6.0000305 L17,6.0000305 L17,1.0000305 L22,6.0000305 Z" id="Shape" fill="#000000"></path>
                                <path d="M7.5,5.0000305 L3.5,5.0000305 C3.2236328,5.0000305 3,5.2236633 3,5.5000305 L3,9.5000305 C3,9.7763977 3.2236328,10.0000305 3.5,10.0000305 L7.5,10.0000305 C7.7763672,10.0000305 8,9.7763977 8,9.5000305 L8,5.5000305 C8,5.2236633 7.7763672,5.0000305 7.5,5.0000305 Z M7,9.0000305 L4,9.0000305 L4,6.0000305 L7,6.0000305 L7,9.0000305 Z" id="Shape" fill="#000000"></path>
                                <path d="M7.5,19.0000305 L3.5,19.0000305 C3.2236328,19.0000305 3,19.2236633 3,19.5000305 L3,23.5000305 C3,23.7763977 3.2236328,24.0000305 3.5,24.0000305 L7.5,24.0000305 C7.7763672,24.0000305 8,23.7763977 8,23.5000305 L8,19.5000305 C8,19.2236633 7.7763672,19.0000305 7.5,19.0000305 Z M7,23.0000305 L4,23.0000305 L4,20.0000305 L7,20.0000305 L7,23.0000305 Z" id="Shape" fill="#000000"></path>
                                <path d="M7.5,12.0000305 L3.5,12.0000305 C3.2236328,12.0000305 3,12.2236633 3,12.5000305 L3,16.5000305 C3,16.7763977 3.2236328,17.0000305 3.5,17.0000305 L7.5,17.0000305 C7.7763672,17.0000305 8,16.7763977 8,16.5000305 L8,12.5000305 C8,12.2236633 7.7763672,12.0000305 7.5,12.0000305 Z M7,16.0000305 L4,16.0000305 L4,13.0000305 L7,13.0000305 L7,16.0000305 Z" id="Shape" fill="#000000"></path>
                                <path d="M19.5,19.0000305 L15.5,19.0000305 C15.2236328,19.0000305 15,19.2236633 15,19.5000305 L15,23.5000305 C15,23.7763977 15.2236328,24.0000305 15.5,24.0000305 L19.5,24.0000305 C19.7763672,24.0000305 20,23.7763977 20,23.5000305 L20,19.5000305 C20,19.2236633 19.7763672,19.0000305 19.5,19.0000305 Z M19,23.0000305 L16,23.0000305 L16,20.0000305 L19,20.0000305 L19,23.0000305 Z" id="Shape" fill="#000000"></path>
                                <path d="M19.5,12.0000305 L15.5,12.0000305 C15.2236328,12.0000305 15,12.2236633 15,12.5000305 L15,16.5000305 C15,16.7763977 15.2236328,17.0000305 15.5,17.0000305 L19.5,17.0000305 C19.7763672,17.0000305 20,16.7763977 20,16.5000305 L20,12.5000305 C20,12.2236633 19.7763672,12.0000305 19.5,12.0000305 Z M19,16.0000305 L16,16.0000305 L16,13.0000305 L19,13.0000305 L19,16.0000305 Z" id="Shape" fill="#000000"></path>
                                <polygon id="Path" fill="#666666" points="17 1.0000305 17 6.0000305 19 6.0000305 22 6.0000305"></polygon>
                            </g>
                        </g>
                        <g id="Icons"></g>
                    </g>
                </g>
            </g>
        </g>
    </g>
</svg>