<?xml version="1.0" encoding="UTF-8"?>
<svg width="175px" height="43px" viewBox="0 0 175 43" version="1.1" xmlns="http://www.w3.org/2000/svg" xmlns:xlink="http://www.w3.org/1999/xlink">
    <!-- Generator: Sketch 52.6 (67491) - http://www.bohemiancoding.com/sketch -->
    <title>logo</title>
    <desc>Created with Sketch.</desc>
    <defs>
        <path d="M1.84545455,8.07474747 L1.84545455,4.76565657 L0.572727273,4.76565657 L0.572727273,4.12929293 L3.81111111,4.12929293 L3.81111111,4.76565657 L2.55252525,4.76565657 L2.55252525,8.07474747 L1.84545455,8.07474747 Z M4.54646465,8.07474747 L4.54646465,4.12929293 L5.43737374,4.12929293 L6.41313131,6.01010101 L6.45555556,6.01010101 L7.41717172,4.12929293 L8.26565657,4.12929293 L8.26565657,8.07474747 L7.61515152,8.07474747 L7.61515152,6.29292929 L7.62929293,5.11919192 L7.57272727,5.11919192 L6.41313131,7.31111111 L5.23939394,5.11919192 L5.18282828,5.11919192 L5.21111111,6.29292929 L5.21111111,8.07474747 L4.54646465,8.07474747 Z" id="path-1"></path>
        <path d="M7.97575758,34.3987879 C6.38059808,34.3987879 5.04577978,34.0941613 3.97126263,33.484899 C2.89674547,32.8756367 1.97178839,32.0614529 1.19636364,31.0423232 L3.09060606,29.5136364 C3.75525585,30.3555261 4.49743698,31.0035499 5.31717172,31.4577273 C6.13690646,31.9119046 7.08955686,32.1389899 8.17515152,32.1389899 C9.30505615,32.1389899 10.1857039,31.8952886 10.8171212,31.4078788 C11.4485385,30.9204689 11.7642424,30.2336745 11.7642424,29.3474747 C11.7642424,28.682825 11.5482345,28.1123424 11.1162121,27.6360101 C10.6841898,27.1596778 9.90323797,26.8328965 8.77333333,26.6556566 L7.41080808,26.4562626 C6.61322834,26.3454877 5.88212454,26.173789 5.21747475,25.9411616 C4.55282496,25.7085342 3.97126512,25.3983689 3.47277778,25.0106566 C2.97429044,24.6229442 2.58658388,24.1410803 2.30964646,23.5650505 C2.03270905,22.9890207 1.89424242,22.3022262 1.89424242,21.5046465 C1.89424242,20.6627567 2.04932505,19.9261143 2.35949495,19.294697 C2.66966485,18.6632797 3.09614207,18.1371065 3.63893939,17.7161616 C4.18173672,17.2952168 4.82976054,16.9795128 5.5830303,16.7690404 C6.33630006,16.558568 7.14494517,16.4533333 8.0089899,16.4533333 C9.40475445,16.4533333 10.5734128,16.6970346 11.515,17.1844444 C12.4565872,17.6718543 13.2818483,18.3475714 13.9908081,19.2116162 L12.2294949,20.8067677 C11.8528601,20.2750478 11.2989936,19.793184 10.5678788,19.3611616 C9.83676402,18.9291393 8.91734561,18.7131313 7.80959596,18.7131313 C6.70184631,18.7131313 5.86550788,18.9512939 5.30055556,19.4276263 C4.73560324,19.9039586 4.45313131,20.5519824 4.45313131,21.3717172 C4.45313131,22.2136069 4.73560324,22.8228601 5.30055556,23.1994949 C5.86550788,23.5761298 6.67969165,23.8530631 7.74313131,24.030303 L9.07242424,24.229697 C10.9777536,24.5177119 12.3291879,25.0660397 13.1267677,25.874697 C13.9243474,26.6833542 14.3231313,27.7412393 14.3231313,29.0483838 C14.3231313,30.7100083 13.7581875,32.0171333 12.6282828,32.969798 C11.4983782,33.9224627 9.94755195,34.3987879 7.97575758,34.3987879 Z M19.0088889,9.40808081 L21.6674747,9.40808081 L21.6674747,24.9940404 L21.800404,24.9940404 L24.4257576,22.069596 L29.2776768,16.8521212 L32.5012121,16.8521212 L26.1538384,23.6315152 L33.1326263,34 L29.9090909,34 L24.2263636,25.259899 L21.6674747,27.8852525 L21.6674747,34 L19.0088889,34 L19.0088889,9.40808081 Z M37.8516162,12.8310101 C37.2755863,12.8310101 36.8601865,12.6925435 36.605404,12.4156061 C36.3506216,12.1386686 36.2232323,11.7786554 36.2232323,11.3355556 L36.2232323,10.9035354 C36.2232323,10.4604355 36.3506216,10.1004223 36.605404,9.82348485 C36.8601865,9.54654744 37.2755863,9.40808081 37.8516162,9.40808081 C38.427646,9.40808081 38.8430459,9.54654744 39.0978283,9.82348485 C39.3526107,10.1004223 39.48,10.4604355 39.48,10.9035354 L39.48,11.3355556 C39.48,11.7786554 39.3526107,12.1386686 39.0978283,12.4156061 C38.8430459,12.6925435 38.427646,12.8310101 37.8516162,12.8310101 Z M36.5223232,16.8521212 L39.1809091,16.8521212 L39.1809091,34 L36.5223232,34 L36.5223232,16.8521212 Z M47.6551515,34 C46.7246418,34 46.0212313,33.7396827 45.544899,33.2190404 C45.0685666,32.6983981 44.830404,32.0392969 44.830404,31.2417172 L44.830404,9.40808081 L47.4889899,9.40808081 L47.4889899,31.6737374 L50.0146465,31.6737374 L50.0146465,34 L47.6551515,34 Z M56.5281818,34 C55.5976721,34 54.8942616,33.7396827 54.4179293,33.2190404 C53.9415969,32.6983981 53.7034343,32.0392969 53.7034343,31.2417172 L53.7034343,9.40808081 L56.3620202,9.40808081 L56.3620202,31.6737374 L58.8876768,31.6737374 L58.8876768,34 L56.5281818,34 Z M66.3649495,34 C65.4344398,34 64.7310293,33.7396827 64.254697,33.2190404 C63.7783646,32.6983981 63.540202,32.0171423 63.540202,31.1752525 L63.540202,19.1783838 L60.7154545,19.1783838 L60.7154545,16.8521212 L62.3106061,16.8521212 C62.8866359,16.8521212 63.2798811,16.7358092 63.4903535,16.5031818 C63.700826,16.2705544 63.8060606,15.8662318 63.8060606,15.290202 L63.8060606,12.099899 L66.1987879,12.099899 L66.1987879,16.8521212 L69.9540404,16.8521212 L69.9540404,19.1783838 L66.1987879,19.1783838 L66.1987879,31.6737374 L69.6881818,31.6737374 L69.6881818,34 L66.3649495,34 Z M84.8088889,16.8521212 L87.4342424,16.8521212 L79.7575758,37.9878788 C79.5581808,38.4974436 79.3587889,38.9239208 79.1593939,39.2673232 C78.959999,39.6107256 78.7162977,39.8821202 78.4282828,40.0815152 C78.1402679,40.2809101 77.7802547,40.4249154 77.3482323,40.5135354 C76.91621,40.6021553 76.3900368,40.6464646 75.769697,40.6464646 L74.4071717,40.6464646 L74.4071717,38.320202 L77.0989899,38.320202 L78.3950505,34.6646465 L71.9812121,16.8521212 L74.639798,16.8521212 L78.7606061,28.5166667 L79.5581818,31.3081818 L79.7243434,31.3081818 L80.6548485,28.5166667 L84.8088889,16.8521212 Z M90.8239394,16.8521212 L93.4825253,16.8521212 L93.4825253,19.6436364 L93.6154545,19.6436364 C94.0585544,18.5580417 94.7065782,17.7549353 95.5595455,17.2342929 C96.4125127,16.7136506 97.4371657,16.4533333 98.6335354,16.4533333 C99.696975,16.4533333 100.660703,16.6638026 101.524747,17.0847475 C102.388792,17.5056923 103.125435,18.1038682 103.734697,18.8792929 C104.343959,19.6547177 104.809207,20.5962908 105.130455,21.7040404 C105.451702,22.8117901 105.612323,24.052451 105.612323,25.4260606 C105.612323,26.7996702 105.451702,28.0403312 105.130455,29.1480808 C104.809207,30.2558305 104.343959,31.1974035 103.734697,31.9728283 C103.125435,32.748253 102.388792,33.3464289 101.524747,33.7673737 C100.660703,34.1883186 99.696975,34.3987879 98.6335354,34.3987879 C96.3072611,34.3987879 94.6345842,33.3353642 93.6154545,31.2084848 L93.4825253,31.2084848 L93.4825253,40.6464646 L90.8239394,40.6464646 L90.8239394,16.8521212 Z M97.9024242,32.0060606 C99.4089638,32.0060606 100.594238,31.5352741 101.458283,30.5936869 C102.322328,29.6520997 102.754343,28.4169773 102.754343,26.8882828 L102.754343,23.9638384 C102.754343,22.4351439 102.322328,21.2000215 101.458283,20.2584343 C100.594238,19.3168471 99.4089638,18.8460606 97.9024242,18.8460606 C97.3042394,18.8460606 96.7337569,18.9291406 96.1909596,19.095303 C95.6481623,19.2614655 95.1773757,19.4885507 94.7785859,19.7765657 C94.379796,20.0645806 94.0640921,20.4135165 93.8314646,20.8233838 C93.5988372,21.2332512 93.4825253,21.6708058 93.4825253,22.1360606 L93.4825253,28.5166667 C93.4825253,29.0705415 93.5988372,29.5634827 93.8314646,29.9955051 C94.0640921,30.4275274 94.379796,30.7930793 94.7785859,31.0921717 C95.1773757,31.3912641 95.6481623,31.6183494 96.1909596,31.7734343 C96.7337569,31.9285193 97.3042394,32.0060606 97.9024242,32.0060606 Z M116.545758,34.3987879 C115.371543,34.3987879 114.313658,34.1883186 113.372071,33.7673737 C112.430484,33.3464289 111.621838,32.7427144 110.946111,31.9562121 C110.270384,31.1697099 109.749749,30.2281368 109.384192,29.1314646 C109.018635,28.0347925 108.835859,26.7996702 108.835859,25.4260606 C108.835859,24.074606 109.018635,22.8450224 109.384192,21.7372727 C109.749749,20.6295231 110.270384,19.6824113 110.946111,18.8959091 C111.621838,18.1094068 112.430484,17.5056923 113.372071,17.0847475 C114.313658,16.6638026 115.371543,16.4533333 116.545758,16.4533333 C117.697817,16.4533333 118.728009,16.6638026 119.636364,17.0847475 C120.544718,17.5056923 121.320131,18.0872522 121.962626,18.8294444 C122.605121,19.5716367 123.098062,20.4522845 123.441465,21.4714141 C123.784867,22.4905438 123.956566,23.6093542 123.956566,24.8278788 L123.956566,26.0907071 L111.627374,26.0907071 L111.627374,26.8882828 C111.627374,27.6193976 111.743686,28.3006534 111.976313,28.9320707 C112.208941,29.563488 112.54126,30.1118159 112.973283,30.5770707 C113.405305,31.0423256 113.937017,31.4078775 114.568434,31.6737374 C115.199852,31.9395973 115.914339,32.0725253 116.711919,32.0725253 C117.797514,32.0725253 118.744626,31.8177467 119.553283,31.3081818 C120.36194,30.798617 120.987809,30.0675132 121.430909,29.1148485 L123.325152,30.4773737 C122.771277,31.6515884 121.907245,32.5987001 120.73303,33.3187374 C119.558816,34.0387746 118.163072,34.3987879 116.545758,34.3987879 Z M116.545758,18.679899 C115.814643,18.679899 115.150003,18.8072883 114.551818,19.0620707 C113.953633,19.3168531 113.438538,19.6768664 113.006515,20.1421212 C112.574493,20.6073761 112.236634,21.1557039 111.992929,21.7871212 C111.749224,22.4185385 111.627374,23.1108717 111.627374,23.8641414 L111.627374,24.0967677 L121.098586,24.0967677 L121.098586,23.7312121 C121.098586,22.2025176 120.683186,20.9784726 119.852374,20.0590404 C119.021562,19.1396082 117.919367,18.679899 116.545758,18.679899 Z" id="path-2"></path>
    </defs>
    <g id="Page-1" stroke="none" stroke-width="1" fill="none" fill-rule="evenodd">
        <g id="logo" transform="translate(0.000000, -0.353535)">
            <g id="™" transform="translate(166.515152, 2.474747)" fill="#000000">
                <g>
                    <use xlink:href="#path-1"></use>
                    <use xlink:href="#path-1"></use>
                </g>
            </g>
            <g id="Group" transform="translate(41.010101, 0.000000)" fill="#000000">
                <g id="skilltype">
                    <use xlink:href="#path-2"></use>
                    <use xlink:href="#path-2"></use>
                </g>
            </g>
            <g id="noun_Cursor_317365_000000" transform="translate(0.000000, 0.353535)">
                <path d="M13.2387901,11.2799756 C12.9253107,10.9613562 12.4327004,10.8703221 11.9848727,11.0523903 C11.5818279,11.2344585 11.3131313,11.644112 11.3131313,12.0992826 L11.3131313,34.8578102 C11.3131313,35.2219466 11.4922624,35.5860831 11.8057417,35.8136683 C12.119221,36.0412535 12.5222659,36.0412535 12.8357452,35.9047023 L17.6275007,33.856435 L20.9862078,42.0950218 C21.1653388,42.5501926 21.5683837,42.7777778 22.0162113,42.7777778 C22.1505596,42.7777778 22.2849078,42.7322608 22.4640389,42.6867438 L26.5840529,40.9570955 C26.8527495,40.8205445 27.0766633,40.6384763 27.2110116,40.3198568 C27.3453599,40.0467543 27.3453599,39.7281352 27.2110116,39.4550326 L23.8523045,31.2164458 L28.64406,29.1681783 C29.002322,29.0316271 29.2262359,28.7130077 29.3158014,28.3488713 C29.4053669,27.9847348 29.2710186,27.5750813 29.002322,27.301979 L13.2387901,11.2799756 Z" id="Shape" fill="#5086EC"></path>
                <path d="M6.8590562,23.3333333 C7.35290825,23.3333333 7.79188783,23.1126871 8.06625008,22.6713948 C8.45035722,22.0094562 8.23086745,21.1820331 7.57239803,20.7959023 C4.60928576,19.0858944 2.74362248,15.8865248 2.74362248,12.466509 C2.74362248,7.11583925 7.07854597,2.75807723 12.3463012,2.75807723 C17.6140563,2.75807723 21.9489798,7.11583925 21.9489798,12.4113475 C21.9489798,13.2387707 21.8392349,14.0661938 21.6197451,14.893617 C21.4002553,15.6107171 21.8392349,16.3829787 22.6074492,16.6036249 C23.3207911,16.8242711 24.0890054,16.3829787 24.3084952,15.6107171 C24.5828574,14.5626478 24.7474747,13.4594169 24.7474747,12.4113475 C24.6926023,5.57131598 19.1504849,0 12.3463012,0 C5.54211739,0 0,5.57131598 0,12.4113475 C0,16.8242711 2.35951533,20.9062254 6.14571434,23.1678487 C6.36520415,23.2781718 6.63956639,23.3333333 6.8590562,23.3333333 Z" id="Path" fill="#F2BD42"></path>
            </g>
        </g>
    </g>
</svg>