<svg width="175px" height="36px" viewBox="0 0 175 36" version="1.1" xmlns="http://www.w3.org/2000/svg" xmlns:xlink="http://www.w3.org/1999/xlink">
    <g id="Symbols" stroke="none" stroke-width="1" fill="none" fill-rule="evenodd">
        <g id="logo-full">
            <g id="Group-2">
                <path d="M49.2416736,29.4145607 C47.6199082,29.4145607 46.2366584,29.1045219 45.0918828,28.4844351 C43.9471072,27.8643484 42.9740626,27.0105494 42.1727197,25.9230126 L43.947113,24.4348117 C44.6530579,25.3697118 45.4353095,26.080416 46.2938912,26.5669456 C47.1524729,27.0534752 48.1636762,27.2967364 49.3275314,27.2967364 C50.7585009,27.2967364 51.8507912,26.9533089 52.6044351,26.2664435 C53.3580791,25.5795782 53.7348954,24.6637714 53.7348954,23.5189958 C53.7348954,22.5650162 53.4487058,21.8304628 52.876318,21.3153138 C52.3039302,20.8001648 51.3595045,20.3899597 50.0430126,20.0846862 L48.4117155,19.712636 C46.5800745,19.2928849 45.1825153,18.658498 44.2189958,17.8094561 C43.2554764,16.9604142 42.7737238,15.7631876 42.7737238,14.2177406 C42.7737238,13.3400793 42.935898,12.5578277 43.260251,11.8709623 C43.5846041,11.184097 44.0377377,10.6117178 44.6196653,10.1538075 C45.2015929,9.69589729 45.8979876,9.34769994 46.7088703,9.10920502 C47.519753,8.8707101 48.4117106,8.75146444 49.3847699,8.75146444 C50.8920577,8.75146444 52.1846808,9.02811439 53.2626778,9.58142259 C54.3406748,10.1347308 55.2517118,10.9456014 55.9958159,12.0140586 L54.1928033,13.3305439 C53.6394951,12.5673602 52.9717194,11.966362 52.1894561,11.5275314 C51.4071927,11.0887007 50.4341481,10.8692887 49.2702929,10.8692887 C47.9919601,10.8692887 46.9855267,11.1411688 46.2509623,11.6849372 C45.516398,12.2287056 45.1491213,13.044346 45.1491213,14.1318828 C45.1491213,15.0858625 45.4591601,15.8061064 46.0792469,16.292636 C46.6993336,16.7791656 47.6389895,17.1655216 48.8982427,17.4517155 L50.5295397,17.8237657 C52.4947379,18.2625963 53.9161462,18.9303721 54.7938075,19.827113 C55.6714688,20.7238539 56.1102929,21.9163106 56.1102929,23.4045188 C56.1102929,24.3203393 55.9528886,25.1502892 55.6380753,25.8943933 C55.323262,26.6384974 54.8701285,27.2681146 54.2786611,27.7832636 C53.6871937,28.2984126 52.9669499,28.6990781 52.1179079,28.985272 C51.268866,29.2714659 50.3101309,29.4145607 49.2416736,29.4145607 Z M60.0311297,7.89288703 L62.3206695,7.89288703 L62.3206695,21.3153138 L62.4351464,21.3153138 L64.6960669,18.7968201 L68.874477,14.3035983 L71.6505439,14.3035983 L66.1842678,20.1419247 L72.1943096,29.0711297 L69.4182427,29.0711297 L64.5243515,21.5442678 L62.3206695,23.8051883 L62.3206695,29.0711297 L60.0311297,29.0711297 L60.0311297,7.89288703 Z M76.2582427,10.8406695 C75.7621733,10.8406695 75.4044362,10.7214238 75.1850209,10.4829289 C74.9656056,10.244434 74.8558996,9.93439521 74.8558996,9.55280335 L74.8558996,9.18075314 C74.8558996,8.79916127 74.9656056,8.48912253 75.1850209,8.25062762 C75.4044362,8.0121327 75.7621733,7.89288703 76.2582427,7.89288703 C76.7543121,7.89288703 77.1120491,8.0121327 77.3314644,8.25062762 C77.5508798,8.48912253 77.6605858,8.79916127 77.6605858,9.18075314 L77.6605858,9.55280335 C77.6605858,9.93439521 77.5508798,10.244434 77.3314644,10.4829289 C77.1120491,10.7214238 76.7543121,10.8406695 76.2582427,10.8406695 Z M75.1134728,14.3035983 L77.4030126,14.3035983 L77.4030126,29.0711297 L75.1134728,29.0711297 L75.1134728,14.3035983 Z M84.7009205,29.0711297 C83.8995776,29.0711297 83.2938096,28.8469478 82.8835983,28.3985774 C82.4733871,27.950207 82.2682845,27.3825976 82.2682845,26.6957322 L82.2682845,7.89288703 L84.5578243,7.89288703 L84.5578243,27.0677824 L86.732887,27.0677824 L86.732887,29.0711297 L84.7009205,29.0711297 Z M92.3422594,29.0711297 C91.5409165,29.0711297 90.9351485,28.8469478 90.5249372,28.3985774 C90.114726,27.950207 89.9096234,27.3825976 89.9096234,26.6957322 L89.9096234,7.89288703 L92.1991632,7.89288703 L92.1991632,27.0677824 L94.3742259,27.0677824 L94.3742259,29.0711297 L92.3422594,29.0711297 Z M100.813556,29.0711297 C100.012214,29.0711297 99.4064456,28.8469478 98.9962343,28.3985774 C98.5860231,27.950207 98.3809205,27.3635183 98.3809205,26.6384937 L98.3809205,16.3069456 L95.9482845,16.3069456 L95.9482845,14.3035983 L97.3220084,14.3035983 C97.8180778,14.3035983 98.1567355,14.203432 98.3379916,14.0030962 C98.5192478,13.8027605 98.6098745,13.4545631 98.6098745,12.9584937 L98.6098745,10.211046 L100.67046,10.211046 L100.67046,14.3035983 L103.904435,14.3035983 L103.904435,16.3069456 L100.67046,16.3069456 L100.67046,27.0677824 L103.675481,27.0677824 L103.675481,29.0711297 L100.813556,29.0711297 Z M116.697238,14.3035983 L118.958159,14.3035983 L112.347113,32.5054393 C112.175397,32.94427 112.003683,33.3115466 111.831967,33.6072803 C111.66025,33.903014 111.450378,34.1367355 111.202343,34.3084519 C110.954308,34.4801682 110.64427,34.6041837 110.272218,34.6805021 C109.900166,34.7568205 109.447032,34.7949791 108.912803,34.7949791 L107.739414,34.7949791 L107.739414,32.7916318 L110.057573,32.7916318 L111.173724,29.6435146 L105.650209,14.3035983 L107.939749,14.3035983 L111.488536,24.348954 L112.175397,26.7529707 L112.318494,26.7529707 L113.119833,24.348954 L116.697238,14.3035983 Z M121.877322,14.3035983 L124.166862,14.3035983 L124.166862,16.7076151 L124.281339,16.7076151 C124.662931,15.772715 125.221001,15.0810901 125.955565,14.6327197 C126.690129,14.1843492 127.572547,13.9601674 128.602845,13.9601674 C129.518666,13.9601674 130.348616,14.1414208 131.09272,14.5039331 C131.836824,14.8664453 132.471211,15.3815866 132.9959,16.0493724 C133.520588,16.7171582 133.921254,17.5280287 134.197908,18.4820084 C134.474562,19.435988 134.612887,20.5044292 134.612887,21.687364 C134.612887,22.8702988 134.474562,23.93874 134.197908,24.8927197 C133.921254,25.8466993 133.520588,26.6575699 132.9959,27.3253556 C132.471211,27.9931414 131.836824,28.5082827 131.09272,28.870795 C130.348616,29.2333073 129.518666,29.4145607 128.602845,29.4145607 C126.599488,29.4145607 125.159,28.4987539 124.281339,26.667113 L124.166862,26.667113 L124.166862,34.7949791 L121.877322,34.7949791 L121.877322,14.3035983 Z M127.973222,27.3539749 C129.270634,27.3539749 130.291377,26.9485396 131.035481,26.1376569 C131.779585,25.3267742 132.151632,24.2631028 132.151632,22.9466109 L132.151632,20.4281172 C132.151632,19.1116252 131.779585,18.0479538 131.035481,17.2370711 C130.291377,16.4261884 129.270634,16.0207531 127.973222,16.0207531 C127.458073,16.0207531 126.966781,16.0923005 126.499331,16.2353975 C126.031881,16.3784944 125.626445,16.5740573 125.283013,16.8220921 C124.93958,17.0701268 124.6677,17.3706259 124.467364,17.7235983 C124.267028,18.0765708 124.166862,18.4533871 124.166862,18.8540586 L124.166862,24.348954 C124.166862,24.8259438 124.267028,25.2504584 124.467364,25.6225105 C124.6677,25.9945625 124.93958,26.3093711 125.283013,26.5669456 C125.626445,26.8245201 126.031881,27.020083 126.499331,27.1536402 C126.966781,27.2871973 127.458073,27.3539749 127.973222,27.3539749 Z M144.028619,29.4145607 C143.017401,29.4145607 142.106364,29.2333073 141.295481,28.870795 C140.484598,28.5082827 139.788204,27.9883716 139.206276,27.311046 C138.624349,26.6337205 138.175985,25.8228499 137.861172,24.87841 C137.546358,23.9339702 137.388954,22.8702988 137.388954,21.687364 C137.388954,20.5235088 137.546358,19.4646073 137.861172,18.5106276 C138.175985,17.5566479 138.624349,16.7410076 139.206276,16.063682 C139.788204,15.3863564 140.484598,14.8664453 141.295481,14.5039331 C142.106364,14.1414208 143.017401,13.9601674 144.028619,13.9601674 C145.020758,13.9601674 145.907946,14.1414208 146.690209,14.5039331 C147.472473,14.8664453 148.140248,15.3672771 148.693556,16.0064435 C149.246865,16.6456099 149.671379,17.4040123 149.967113,18.2816736 C150.262847,19.1593349 150.410711,20.1228399 150.410711,21.1722176 L150.410711,22.259749 L139.792971,22.259749 L139.792971,22.9466109 C139.792971,23.5762375 139.893137,24.1629262 140.093473,24.7066946 C140.293809,25.250463 140.579998,25.7226758 140.95205,26.1233473 C141.324102,26.5240187 141.782006,26.8388273 142.325774,27.0677824 C142.869542,27.2967375 143.48485,27.4112134 144.171715,27.4112134 C145.106616,27.4112134 145.922256,27.1918014 146.618661,26.7529707 C147.315066,26.3141401 147.854057,25.6845229 148.235649,24.8641004 L149.866946,26.0374895 C149.389956,27.048708 148.645863,27.8643484 147.634644,28.4844351 C146.623426,29.1045219 145.42143,29.4145607 144.028619,29.4145607 Z M144.028619,15.8776569 C143.398993,15.8776569 142.826613,15.9873629 142.311464,16.2067782 C141.796315,16.4261936 141.352722,16.7362323 140.980669,17.1369038 C140.608617,17.5375752 140.317658,18.0097881 140.107782,18.5535565 C139.897907,19.0973249 139.792971,19.6935532 139.792971,20.3422594 L139.792971,20.5425941 L147.949456,20.5425941 L147.949456,20.2277824 C147.949456,18.9112905 147.591719,17.8571588 146.876234,17.0653556 C146.16075,16.2735525 145.211554,15.8776569 144.028619,15.8776569 Z" id="Skilltype" fill="#000000"></path>
                <g id="Group">
                    <path d="M20.7274357,12.9539749 L5.33114167,12.9539749 C2.96916482,12.9539749 1.05439331,14.9007843 1.05439331,17.3022815 L1.05439331,28.4629352 C1.05439331,30.8644325 2.96916482,32.8112418 5.33114167,32.8112418 L9.96278885,32.8112418 L9.89856635,32.8168946 L13.0292887,36 L13.0314984,32.8112418 L20.7274357,32.8112418 C23.0894126,32.8112418 25.0041841,30.8644325 25.0041841,28.4629352 L25.0041841,17.3022815 C25.0041841,14.9007843 23.0894126,12.9539749 20.7274357,12.9539749 Z" id="Shape" fill="#C7D1FF"></path>
                    <path d="M12.5022325,36 C12.319407,36 12.1398123,35.9307256 12.0054499,35.8002905 L9.1207678,32.9999258 L4.91655306,32.9999258 C2.2055657,32.9999258 0,30.8588273 0,28.2270803 L0,17.7268203 C0,15.0950734 2.2055657,12.9539749 4.91655306,12.9539749 L12.0104368,12.9539749 C12.3982826,12.9539749 12.7128015,13.2592324 12.7128015,13.63581 C12.7128015,14.0123874 12.3982826,14.317645 12.0104368,14.317645 L4.91655306,14.317645 C2.98013351,14.317645 1.40472944,15.847001 1.40472944,17.7268203 L1.40472944,28.2270803 C1.40472944,30.1068995 2.98013351,31.6362556 4.91655306,31.6362556 L9.48044878,31.6362556 C9.76771595,31.6362556 10.0160721,31.8040552 10.1245875,32.0459021 L11.8009916,33.6732378 L11.8019749,32.3176134 C11.8022558,31.9412405 12.116564,31.6362556 12.5043396,31.6362556 L20.0876311,31.6362556 C22.0240506,31.6362556 23.5994546,30.1068995 23.5994546,28.2270803 L23.5994546,23.5224184 C23.5994546,23.1458408 23.9139736,22.8405833 24.3018194,22.8405833 C24.6896652,22.8405833 25.0041841,23.1458408 25.0041841,23.5224184 L25.0041841,28.2270803 C25.0041841,30.8588273 22.7986184,32.9999258 20.0876311,32.9999258 L13.2061425,32.9999258 L13.2044568,35.3186423 C13.204246,35.5943081 13.0330798,35.8427688 12.7706061,35.9481805 C12.6838641,35.9830223 12.5926269,36 12.5022325,36 Z" id="Shape" fill="#000000"></path>
                    <path d="M25.5227527,0.90376569 L23.7325481,0.90376569 C18.4452588,0.90376569 14.1589958,5.28486103 14.1589958,10.6892917 C14.1589958,16.0936499 18.445188,20.4748175 23.7325481,20.4748175 L25.5227527,20.4748175 C26.5027004,20.4748175 27.4481299,20.3239996 28.3383162,20.0444152 L31.2766029,23.0460251 L31.2766029,18.5104245 C33.596251,16.724685 35.0962343,13.8861118 35.0962343,10.6892193 C35.0962343,5.28486103 30.8100421,0.90376569 25.5227527,0.90376569 Z" id="Shape" fill="#F6C243"></path>
                    <path d="M31.3325965,23.0460251 C31.1428314,23.0460251 30.9564212,22.9742568 30.8169052,22.8392675 L28.0902541,20.1998051 C27.2150886,20.4216087 26.3121366,20.5338527 25.3998495,20.5338527 L23.5540525,20.5338527 C17.7091867,20.5338527 12.9539749,15.9281795 12.9539749,10.2669616 C12.9539749,4.60574376 17.7091867,0 23.5541254,0 L25.3999224,0 C31.2447882,0 36,4.60574376 36,10.2669616 C36,11.9068952 35.6125205,13.4742834 34.8481363,14.9256133 C34.1751341,16.203456 33.2161714,17.3472984 32.0617553,18.2528079 L32.0617553,22.3396444 C32.0617553,22.6253047 31.8840966,22.8828511 31.6116284,22.9921989 C31.5214134,23.0284362 31.4266038,23.0460251 31.3325965,23.0460251 Z M28.3028465,18.7005826 C28.4933408,18.7005826 28.6796052,18.7729866 28.8184648,18.9073403 L30.6031461,20.6350064 L30.6031461,17.9083766 C30.6031461,17.6865024 30.7107913,17.477555 30.893628,17.3441197 C33.2118685,15.6530442 34.5413908,13.073483 34.5413908,10.2669616 C34.5413908,5.38474045 30.440584,1.4127615 25.3999224,1.4127615 L23.5541254,1.4127615 C18.5134638,1.4127615 14.4125841,5.38474045 14.4125841,10.2669616 C14.4125841,15.1491828 18.5133909,19.1211618 23.5541254,19.1211618 L25.3999224,19.1211618 C26.3160019,19.1211618 27.2206314,18.9901987 28.0887226,18.7318047 C28.1591734,18.7108252 28.2313745,18.7005826 28.3028465,18.7005826 Z" id="Shape" fill="#000000" fill-rule="nonzero"></path>
                    <path d="M27.01703,13.367105 C26.3606806,13.367105 25.8488614,13.8151921 24.8886223,13.8151921 C24.2008,13.8151921 23.5770119,13.4716629 23.5770119,12.8438072 C23.5770119,11.3053366 28.9205021,12.2911622 28.9205021,8.4370028 C28.9205021,6.30057437 27.0325397,4.9707113 24.8246335,4.9707113 C23.5929751,4.9707113 20.9372385,5.23958054 20.9372385,6.64410363 C20.9372385,7.22664658 21.3530973,7.70458929 22.0089477,7.70458929 C22.7607134,7.70458929 23.6570092,7.12204633 24.6967014,7.12204633 C25.752901,7.12204633 26.3287542,7.67519957 26.3287542,8.40710492 C26.3287542,10.1696404 20.985264,9.10911237 20.985264,12.5754039 C20.985264,14.6665621 22.8247475,15.9665272 24.9526563,15.9665272 C25.8488161,15.9665696 28.0881951,15.65243 28.0881951,14.4724375 C28.0881951,13.8898945 27.6723363,13.367105 27.01703,13.367105 Z" id="Shape" fill="#000000" transform="translate(24.928870, 10.468619) scale(-1, 1) rotate(-180.000000) translate(-24.928870, -10.468619) "></path>
                    <path d="M19.3422811,23.9497908 L4.75813726,23.9497908 C4.37646123,23.9497908 4.06694561,23.4777389 4.06694561,22.8953975 C4.06694561,22.3130561 4.37646123,21.8410042 4.75813726,21.8410042 L19.3422811,21.8410042 C19.7239572,21.8410042 20.0334728,22.3130561 20.0334728,22.8953975 C20.0334728,23.4777389 19.7240263,23.9497908 19.3422811,23.9497908 Z" id="Shape" fill="#000000"></path>
                    <path d="M18.9790795,28.0167364 C18.7017741,28.0167364 18.4297406,27.9039163 18.2336234,27.7077992 C18.0375063,27.511682 17.9246862,27.2396485 17.9246862,26.9623431 C17.9246862,26.6850377 18.0374008,26.4130042 18.2336234,26.216887 C18.4297406,26.0207699 18.7017741,25.9079498 18.9790795,25.9079498 C19.2563849,25.9079498 19.5284184,26.0207699 19.7244301,26.216887 C19.9205473,26.4130042 20.0334728,26.6850377 20.0334728,26.9623431 C20.0334728,27.2407029 19.9206527,27.511682 19.7244301,27.7077992 C19.5284184,27.9039163 19.2563849,28.0167364 18.9790795,28.0167364 Z" id="Shape" fill="#000000"></path>
                    <path d="M16.3450621,28.0167364 L4.74280399,28.0167364 C4.36959499,28.0167364 4.06694561,27.5446845 4.06694561,26.9623431 C4.06694561,26.3800017 4.36959499,25.9079498 4.74280399,25.9079498 L16.3450621,25.9079498 C16.7182711,25.9079498 17.0209205,26.3800017 17.0209205,26.9623431 C17.0209205,27.5446845 16.7183387,28.0167364 16.3450621,28.0167364 Z" id="Shape" fill="#000000"></path>
                    <path d="M15.2406109,20.0334728 L4.64223421,20.0334728 C4.24138327,20.0334728 3.91631799,19.5614209 3.91631799,18.9790795 C3.91631799,18.3967381 4.24138327,17.9246862 4.64223421,17.9246862 L15.2406109,17.9246862 C15.641462,17.9246862 15.9665272,18.3967381 15.9665272,18.9790795 C15.9665272,19.5614209 15.6415345,20.0334728 15.2406109,20.0334728 Z" id="Shape" fill="#000000"></path>
                </g>
                <path d="M153.687163,2.2232636 L155.289841,2.2232636 L154.522845,6.08113808 L154.591531,6.08113808 C154.828118,5.59270049 155.095229,5.21493021 155.39287,4.9478159 C155.690512,4.68070159 156.075914,4.54714644 156.549088,4.54714644 C156.831466,4.54714644 157.073773,4.59866057 157.276017,4.70169038 C157.47826,4.80472018 157.64425,4.94972291 157.773992,5.13670293 C157.903733,5.32368294 157.999129,5.54500291 158.060184,5.80066946 C158.121239,6.05633601 158.151766,6.33298596 158.151766,6.63062762 C158.151766,7.27170195 158.077356,7.84980496 157.928536,8.36495397 C157.779715,8.88010299 157.579382,9.32083499 157.327531,9.68716318 C157.075681,10.0534914 156.779951,10.3358651 156.440335,10.5342929 C156.100718,10.7327207 155.740119,10.8319331 155.358527,10.8319331 C154.938776,10.8319331 154.593441,10.7174572 154.32251,10.4885021 C154.05158,10.259547 153.897038,9.98098909 153.858879,9.65282008 L153.80164,9.65282008 L153.595582,10.6945607 L151.992904,10.6945607 L153.687163,2.2232636 Z M154.969305,9.5154477 C155.663803,9.5154477 156.102627,9.06899191 156.285791,8.17606695 L156.446059,7.37472803 C156.461322,7.29077782 156.476586,7.1839337 156.491849,7.05419247 C156.507113,6.92445123 156.514745,6.81379125 156.514745,6.72220921 C156.514745,6.4550949 156.447967,6.24522252 156.31441,6.09258577 C156.180853,5.93994903 155.995784,5.8636318 155.759197,5.8636318 C155.553137,5.8636318 155.36616,5.91705386 155.198259,6.02389958 C155.030359,6.1307453 154.885356,6.26048459 154.763247,6.41312134 C154.633506,6.56575809 154.520938,6.7470115 154.42554,6.95688703 C154.330142,7.16676256 154.259548,7.38235873 154.213757,7.60368201 L154.030594,8.51949791 C153.969539,8.8247714 154.026777,9.0670786 154.20231,9.24642678 C154.377842,9.42577496 154.633505,9.5154477 154.969305,9.5154477 Z M161.402912,10.8319331 C160.548146,10.8319331 159.910897,10.6010734 159.491146,10.1393473 C159.071395,9.67762112 158.861523,9.04609606 158.861523,8.24475314 C158.861523,7.76394739 158.93784,7.30032022 159.090477,6.85385774 C159.243114,6.40739526 159.460618,6.01436153 159.742996,5.67474477 C160.025374,5.33512801 160.368801,5.06229392 160.773289,4.85623431 C161.177776,4.6501747 161.628048,4.54714644 162.124117,4.54714644 C162.353072,4.54714644 162.593472,4.57385747 162.845322,4.62728033 C163.097173,4.6807032 163.328032,4.77037594 163.537908,4.89630126 C163.747783,5.02222657 163.923313,5.1920324 164.064502,5.40572385 C164.205691,5.61941529 164.276285,5.89034146 164.276285,6.21851046 C164.276285,6.53141579 164.203783,6.81188161 164.058778,7.05991632 C163.913773,7.30795103 163.688638,7.52163927 163.383364,7.70098745 C163.078091,7.88033562 162.685057,8.0215225 162.204251,8.1245523 C161.723445,8.22758211 161.14725,8.29054382 160.475649,8.31343933 C160.460385,8.38212587 160.452753,8.43554793 160.452753,8.47370711 L160.452753,8.5767364 C160.452753,8.86674622 160.530978,9.09951377 160.687431,9.27504603 C160.843884,9.45057828 161.120534,9.5383431 161.517389,9.5383431 C161.776872,9.5383431 162.019179,9.48301311 162.244318,9.37235146 C162.469457,9.26168982 162.71558,9.03846193 162.982695,8.70266109 L163.967197,9.4811046 C163.593237,9.97717403 163.202111,10.3263253 162.793808,10.528569 C162.385504,10.7308127 161.921877,10.8319331 161.402912,10.8319331 Z M162.032536,5.77205021 C161.689103,5.77205021 161.397189,5.88461812 161.156787,6.10975732 C160.916384,6.33489652 160.761841,6.64207337 160.693155,7.03129707 L160.647364,7.29459414 C161.074747,7.27169863 161.423898,7.23354002 161.694828,7.18011715 C161.965759,7.12669429 162.177539,7.05991672 162.330176,6.97978243 C162.482812,6.89964813 162.585841,6.80997539 162.639264,6.71076151 C162.692686,6.61154762 162.719397,6.50088764 162.719397,6.37877824 C162.719397,6.24903701 162.696502,6.14410082 162.650711,6.06396653 C162.60492,5.98383224 162.547682,5.92277845 162.478996,5.88080335 C162.410309,5.83882824 162.3359,5.81020928 162.255766,5.79494561 C162.175631,5.77968193 162.101222,5.77205021 162.032536,5.77205021 Z M166.48569,10.6945607 C165.546974,10.6945607 165.077623,10.3167904 165.077623,9.56123849 C165.077623,9.5001838 165.081439,9.42386657 165.089071,9.33228452 C165.096703,9.24070247 165.108151,9.15293766 165.123414,9.06898745 L165.74159,5.96666109 L164.89446,5.96666109 L165.14631,4.68451883 L165.546979,4.68451883 C165.791198,4.68451883 165.95528,4.63491263 166.03923,4.53569874 C166.12318,4.43648486 166.184234,4.2838504 166.222393,4.07779079 L166.428452,3.05894561 L167.916653,3.05894561 L167.596117,4.68451883 L168.809573,4.68451883 L168.546276,5.96666109 L167.33282,5.96666109 L166.645958,9.41241841 L167.744937,9.41241841 L167.493088,10.6945607 L166.48569,10.6945607 Z M173.319967,10.6945607 C173.029957,10.6945607 172.789557,10.6182434 172.598762,10.4656067 C172.407966,10.3129699 172.312569,10.0954658 172.312569,9.81308787 C172.312569,9.75203317 172.316385,9.68716352 172.324017,9.61847699 C172.331649,9.54979045 172.33928,9.50018425 172.346912,9.4696569 L172.381255,9.29794142 L172.312569,9.29794142 C172.075982,9.78637901 171.808872,10.1641493 171.51123,10.4312636 C171.213588,10.6983779 170.828186,10.8319331 170.355013,10.8319331 C170.072635,10.8319331 169.830327,10.7804189 169.628084,10.6773891 C169.42584,10.5743593 169.25985,10.4293566 169.130109,10.2423766 C169.000368,10.0553966 168.904971,9.83407659 168.843916,9.57841004 C168.782862,9.32274349 168.752335,9.04609354 168.752335,8.74845188 C168.752335,8.10737755 168.826744,7.52927454 168.975565,7.01412552 C169.124386,6.4989765 169.324718,6.05824451 169.576569,5.69191632 C169.82842,5.32558813 170.124149,5.04321438 170.463766,4.84478661 C170.803382,4.64635884 171.163981,4.54714644 171.545573,4.54714644 C171.965324,4.54714644 172.31066,4.66162229 172.58159,4.89057741 C172.85252,5.11953253 173.007063,5.39809041 173.045222,5.72625941 L173.10246,5.72625941 L173.308519,4.68451883 L174.911197,4.68451883 L173.961038,9.41241841 L174.636452,9.41241841 L174.384603,10.6945607 L173.319967,10.6945607 Z M171.144904,9.5154477 C171.350963,9.5154477 171.537941,9.46202564 171.705841,9.35517992 C171.873741,9.24833419 172.018744,9.11859491 172.140854,8.96595816 C172.270595,8.81332141 172.383163,8.63206799 172.478561,8.42219247 C172.573959,8.21231694 172.644552,7.99672077 172.690343,7.77539749 L172.873506,6.85958159 C172.934561,6.57720361 172.877323,6.3406202 172.701791,6.14982427 C172.526259,5.95902833 172.270596,5.8636318 171.934795,5.8636318 C171.240298,5.8636318 170.801474,6.31008759 170.61831,7.20301255 L170.458042,8.00435146 C170.442778,8.08830167 170.427515,8.19514579 170.412251,8.32488703 C170.396987,8.45462826 170.389356,8.56528825 170.389356,8.65687029 C170.389356,8.9239846 170.456133,9.13385698 170.58969,9.28649372 C170.723248,9.43913047 170.908317,9.5154477 171.144904,9.5154477 Z" id="beta" fill="#E91E63"></path>
            </g>
        </g>
    </g>
</svg>
